<svg xmlns="http://www.w3.org/2000/svg" xmlns:xlink="http://www.w3.org/1999/xlink" width="882pt" height="350pt" viewBox="0.00 0.00 882.07 350.00">
<g id="graph0" class="graph" transform="scale(1 1) rotate(0) translate(4 346)">
<title>BIO_GUARD_TopDown</title>
<polygon fill="white" stroke="none" points="-4,4 -4,-346 878.07,-346 878.07,4 -4,4"/>
<g id="clust1" class="cluster">
<title>cluster_device</title>
<path fill="#f9f9f9" stroke="gray" d="M20,-80.8C20,-80.8 693,-80.8 693,-80.8 699,-80.8 705,-86.8 705,-92.8 705,-92.8 705,-234.4 705,-234.4 705,-240.4 699,-246.4 693,-246.4 693,-246.4 20,-246.4 20,-246.4 14,-246.4 8,-240.4 8,-234.4 8,-234.4 8,-92.8 8,-92.8 8,-86.8 14,-80.8 20,-80.8"/>
<text text-anchor="middle" x="356.5" y="-229.8" font-family="Times,serif" font-size="14.00">BIO GUARD Device (Door Unit)</text>
</g>
<!-- User -->
<g id="node1" class="node">
<title>User</title>
<polygon fill="#c0c0c0" stroke="black" points="124.18,-342 39.82,-342 39.82,-306 124.18,-306 124.18,-342"/>
<text text-anchor="middle" x="82" y="-321" font-family="Arial" font-size="10.00">User/Employee</text>
</g>
<!-- Fingerprint -->
<g id="node3" class="node">
<title>Fingerprint</title>
<polygon fill="#ffb6c1" stroke="black" points="147.8,-213.6 16.2,-213.6 16.2,-177.6 147.8,-177.6 147.8,-213.6"/>
<text text-anchor="middle" x="82" y="-192.6" font-family="Arial" font-size="10.00">Fingerprint Sensor (R307)</text>
</g>
<!-- User&#45;&gt;Fingerprint -->
<g id="edge1" class="edge">
<title>User-&gt;Fingerprint</title>
<path fill="none" stroke="black" d="M82,-305.69C82,-284.89 82,-249.7 82,-224.92"/>
<polygon fill="black" stroke="black" points="85.5,-225.21 82,-215.21 78.5,-225.21 85.5,-225.21"/>
<text text-anchor="middle" x="119.91" y="-267" font-family="Times,serif" font-size="14.00">Places Finger</text>
</g>
<!-- Admin -->
<g id="node2" class="node">
<title>Admin</title>
<polygon fill="#c0c0c0" stroke="black" points="769.62,-342 676.38,-342 676.38,-306 769.62,-306 769.62,-342"/>
<text text-anchor="middle" x="723" y="-321" font-family="Arial" font-size="10.00">Admin (Operator)</text>
</g>
<!-- Keypad -->
<g id="node9" class="node">
<title>Keypad</title>
<polygon fill="#dda0dd" stroke="black" points="697.41,-213.6 628.59,-213.6 628.59,-177.6 697.41,-177.6 697.41,-213.6"/>
<text text-anchor="middle" x="663" y="-192.6" font-family="Arial" font-size="10.00">4x4 Keypad</text>
</g>
<!-- Admin&#45;&gt;Keypad -->
<g id="edge8" class="edge">
<title>Admin-&gt;Keypad</title>
<path fill="none" stroke="black" d="M676.1,-306.01C668.81,-301.3 662.24,-295.39 657.82,-288 646.54,-269.14 648.96,-243.98 653.57,-224.83"/>
<polygon fill="black" stroke="black" points="656.92,-225.83 656.21,-215.26 650.18,-223.97 656.92,-225.83"/>
<text text-anchor="middle" x="716.91" y="-275.4" font-family="Times,serif" font-size="14.00">Enter Admin Mode</text>
<text text-anchor="middle" x="716.91" y="-258.6" font-family="Times,serif" font-size="14.00">(Enroll, Delete, Exit)</text>
</g>
<!-- WebApp -->
<g id="node11" class="node">
<title>WebApp</title>
<polygon fill="#ffffcc" stroke="black" points="843.13,-124.8 724.87,-124.8 724.87,-88.8 843.13,-88.8 843.13,-124.8"/>
<text text-anchor="middle" x="784" y="-103.8" font-family="Arial" font-size="10.00">Web App (Firebase UI)</text>
</g>
<!-- Admin&#45;&gt;WebApp -->
<g id="edge10" class="edge">
<title>Admin-&gt;WebApp</title>
<path fill="none" stroke="black" d="M759.44,-305.65C766.01,-300.86 772.03,-295 776,-288 803.04,-240.31 796.84,-173.58 790.22,-136.15"/>
<polygon fill="black" stroke="black" points="793.7,-135.74 788.38,-126.58 786.83,-137.06 793.7,-135.74"/>
<text text-anchor="middle" x="834.99" y="-191.4" font-family="Times,serif" font-size="14.00">Uses Browser</text>
</g>
<!-- ESP32 -->
<g id="node4" class="node">
<title>ESP32</title>
<polygon fill="#87cefa" stroke="black" stroke-width="2" points="512.74,-124.8 397.26,-124.8 397.26,-88.8 512.74,-88.8 512.74,-124.8"/>
<text text-anchor="middle" x="455" y="-103.8" font-family="Arial" font-size="10.00">ESP32 Microcontroller</text>
</g>
<!-- Fingerprint&#45;&gt;ESP32 -->
<g id="edge2" class="edge">
<title>Fingerprint-&gt;ESP32</title>
<path fill="none" stroke="black" d="M133.21,-177.15C166.69,-166.2 211.54,-152.39 251.89,-142.8 295.93,-132.33 346.05,-123.67 385.48,-117.57"/>
<polygon fill="black" stroke="black" points="385.97,-121.04 395.33,-116.07 384.92,-114.12 385.97,-121.04"/>
<text text-anchor="middle" x="270.94" y="-147" font-family="Times,serif" font-size="14.00">UART</text>
</g>
<!-- Firebase -->
<g id="node10" class="node">
<title>Firebase</title>
<polygon fill="#ffcccc" stroke="black" points="667.85,-36 570.15,-36 570.15,0 667.85,0 667.85,-36"/>
<text text-anchor="middle" x="619" y="-21" font-family="Arial" font-size="10.00">Firebase Cloud</text>
<text text-anchor="middle" x="619" y="-9" font-family="Arial" font-size="10.00">(Database/Server)</text>
</g>
<!-- ESP32&#45;&gt;Firebase -->
<g id="edge9" class="edge">
<title>ESP32-&gt;Firebase</title>
<path fill="none" stroke="black" d="M487.79,-88.44C513.07,-75.06 548.26,-56.44 575.83,-41.85"/>
<polygon fill="black" stroke="black" points="577.44,-44.95 584.64,-37.18 574.17,-38.77 577.44,-44.95"/>
<text text-anchor="middle" x="615.66" y="-58.2" font-family="Times,serif" font-size="14.00">WiFi (HTTPS/MQTT)</text>
</g>
<!-- StatusLED -->
<g id="node5" class="node">
<title>StatusLED</title>
<polygon fill="#ffd580" stroke="black" points="244.12,-213.6 165.88,-213.6 165.88,-177.6 244.12,-177.6 244.12,-213.6"/>
<text text-anchor="middle" x="205" y="-192.6" font-family="Arial" font-size="10.00">Status LED(s)</text>
</g>
<!-- StatusLED&#45;&gt;ESP32 -->
<g id="edge3" class="edge">
<title>StatusLED-&gt;ESP32</title>
<path fill="none" stroke="black" d="M244.37,-178.36C270.76,-167.71 306.39,-153.78 338.33,-142.8 353.69,-137.52 370.33,-132.26 386.1,-127.48"/>
<polygon fill="black" stroke="black" points="386.83,-130.92 395.4,-124.69 384.82,-124.21 386.83,-130.92"/>
<text text-anchor="middle" x="354.67" y="-147" font-family="Times,serif" font-size="14.00">GPIO</text>
</g>
<!-- RelayLock -->
<g id="node6" class="node">
<title>RelayLock</title>
<polygon fill="#ffa07a" stroke="black" points="378.31,-213.6 261.69,-213.6 261.69,-177.6 378.31,-177.6 378.31,-213.6"/>
<text text-anchor="middle" x="320" y="-192.6" font-family="Arial" font-size="10.00">Relay &amp; Solenoid Lock</text>
</g>
<!-- RelayLock&#45;&gt;ESP32 -->
<g id="edge4" class="edge">
<title>RelayLock-&gt;ESP32</title>
<path fill="none" stroke="black" d="M346.99,-177.24C367.51,-164.06 395.93,-145.78 418.48,-131.28"/>
<polygon fill="black" stroke="black" points="420.26,-134.3 426.78,-125.95 416.47,-128.41 420.26,-134.3"/>
<text text-anchor="middle" x="415.93" y="-147" font-family="Times,serif" font-size="14.00">GPIO</text>
</g>
<!-- RTC -->
<g id="node7" class="node">
<title>RTC</title>
<polygon fill="#90ee90" stroke="black" points="513.85,-213.6 396.15,-213.6 396.15,-177.6 513.85,-177.6 513.85,-213.6"/>
<text text-anchor="middle" x="455" y="-192.6" font-family="Arial" font-size="10.00">RTC Module (DS1307)</text>
</g>
<!-- RTC&#45;&gt;ESP32 -->
<g id="edge5" class="edge">
<title>RTC-&gt;ESP32</title>
<path fill="none" stroke="black" d="M455,-177.45C455,-165.76 455,-149.99 455,-136.42"/>
<polygon fill="black" stroke="black" points="458.5,-136.72 455,-126.72 451.5,-136.72 458.5,-136.72"/>
<text text-anchor="middle" x="465.5" y="-147" font-family="Times,serif" font-size="14.00">I2C</text>
</g>
<!-- OLED -->
<g id="node8" class="node">
<title>OLED</title>
<polygon fill="#add8e6" stroke="black" points="610.4,-213.6 531.6,-213.6 531.6,-177.6 610.4,-177.6 610.4,-213.6"/>
<text text-anchor="middle" x="571" y="-192.6" font-family="Arial" font-size="10.00">OLED Display</text>
</g>
<!-- OLED&#45;&gt;ESP32 -->
<g id="edge6" class="edge">
<title>OLED-&gt;ESP32</title>
<path fill="none" stroke="black" d="M547.8,-177.24C530.42,-164.23 506.41,-146.27 487.17,-131.87"/>
<polygon fill="black" stroke="black" points="489.47,-129.22 479.37,-126.03 485.28,-134.83 489.47,-129.22"/>
<text text-anchor="middle" x="533.89" y="-147" font-family="Times,serif" font-size="14.00">I2C</text>
</g>
<!-- Keypad&#45;&gt;ESP32 -->
<g id="edge7" class="edge">
<title>Keypad-&gt;ESP32</title>
<path fill="none" stroke="black" d="M628.27,-178.27C605.58,-167.77 575.22,-154.04 548,-142.8 537,-138.26 525.18,-133.63 513.78,-129.28"/>
<polygon fill="black" stroke="black" points="515.02,-126.01 504.43,-125.74 512.55,-132.55 515.02,-126.01"/>
<text text-anchor="middle" x="628.04" y="-147" font-family="Times,serif" font-size="14.00">GPIO (Matrix)</text>
</g>
<!-- WebApp&#45;&gt;Firebase -->
<g id="edge11" class="edge">
<title>WebApp-&gt;Firebase</title>
<path fill="none" stroke="black" d="M751.01,-88.44C725.46,-75 689.86,-56.28 662.07,-41.66"/>
<polygon fill="black" stroke="black" points="664.04,-38.74 653.56,-37.18 660.78,-44.93 664.04,-38.74"/>
<text text-anchor="middle" x="772.26" y="-58.2" font-family="Times,serif" font-size="14.00">Realtime Data Sync</text>
</g>
</g>
</svg>